<mxfile host="Electron" modified="2024-02-08T19:04:36.708Z" agent="Mozilla/5.0 (Windows NT 10.0; Win64; x64) AppleWebKit/537.36 (KHTML, like Gecko) draw.io/22.1.18 Chrome/120.0.6099.199 Electron/28.1.2 Safari/537.36" etag="mSmW8JDk5reAXYVHqFNQ" version="22.1.18" type="device">
  <diagram id="mywaSKn83zfkbWweIfAr" name="Page-1">
    <mxGraphModel dx="1656" dy="1078" grid="0" gridSize="10" guides="1" tooltips="1" connect="1" arrows="1" fold="1" page="1" pageScale="1" pageWidth="1600" pageHeight="1200" math="0" shadow="0">
      <root>
        <mxCell id="0" />
        <mxCell id="1" parent="0" />
        <mxCell id="69n3fJ-1WLA8eGQb09Vc-6" style="edgeStyle=orthogonalEdgeStyle;rounded=0;orthogonalLoop=1;jettySize=auto;html=1;exitX=0.986;exitY=1.072;exitDx=0;exitDy=0;exitPerimeter=0;" edge="1" parent="1">
          <mxGeometry relative="1" as="geometry">
            <mxPoint x="1329.4719999999998" y="342.6479999999999" as="sourcePoint" />
            <mxPoint x="1333" y="378" as="targetPoint" />
          </mxGeometry>
        </mxCell>
        <mxCell id="69n3fJ-1WLA8eGQb09Vc-20" style="edgeStyle=orthogonalEdgeStyle;rounded=0;orthogonalLoop=1;jettySize=auto;html=1;" edge="1" parent="1" source="djPDteplL4elMwXBVkAy-17">
          <mxGeometry relative="1" as="geometry">
            <mxPoint x="704.2771402994795" y="381.87894694010424" as="targetPoint" />
          </mxGeometry>
        </mxCell>
        <mxCell id="djPDteplL4elMwXBVkAy-17" value="" style="shape=line;html=1;strokeWidth=6;strokeColor=#000000;" parent="1" vertex="1">
          <mxGeometry x="595" y="333" width="752" height="9" as="geometry" />
        </mxCell>
        <mxCell id="69n3fJ-1WLA8eGQb09Vc-11" value="" style="edgeStyle=orthogonalEdgeStyle;rounded=0;orthogonalLoop=1;jettySize=auto;html=1;" edge="1" parent="1" source="djPDteplL4elMwXBVkAy-23" target="djPDteplL4elMwXBVkAy-41">
          <mxGeometry relative="1" as="geometry" />
        </mxCell>
        <mxCell id="djPDteplL4elMwXBVkAy-23" value="Edit Password&amp;nbsp;" style="swimlane;html=1;fontStyle=1;align=center;verticalAlign=middle;childLayout=stackLayout;horizontal=1;startSize=30;horizontalStack=0;resizeParent=0;resizeLast=1;container=0;collapsible=0;rounded=1;arcSize=30;strokeColor=#36393d;fillColor=#cce5ff;swimlaneFillColor=#ffffc0;dropTarget=0;" parent="1" vertex="1">
          <mxGeometry x="815" y="384" width="160" height="60" as="geometry" />
        </mxCell>
        <mxCell id="djPDteplL4elMwXBVkAy-24" value="Enter &lt;u&gt;&lt;b&gt;Old&lt;/b&gt;&lt;/u&gt;&amp;nbsp;password&amp;nbsp;" style="text;html=1;strokeColor=#36393d;fillColor=#cce5ff;align=center;verticalAlign=middle;spacingLeft=4;spacingRight=4;whiteSpace=wrap;overflow=hidden;rotatable=0;" parent="djPDteplL4elMwXBVkAy-23" vertex="1">
          <mxGeometry y="30" width="160" height="30" as="geometry" />
        </mxCell>
        <mxCell id="69n3fJ-1WLA8eGQb09Vc-10" value="" style="edgeStyle=orthogonalEdgeStyle;rounded=0;orthogonalLoop=1;jettySize=auto;html=1;" edge="1" parent="1" source="djPDteplL4elMwXBVkAy-26" target="djPDteplL4elMwXBVkAy-32">
          <mxGeometry relative="1" as="geometry" />
        </mxCell>
        <mxCell id="djPDteplL4elMwXBVkAy-26" value="Edit username&amp;nbsp;" style="swimlane;html=1;fontStyle=1;align=center;verticalAlign=middle;childLayout=stackLayout;horizontal=1;startSize=30;horizontalStack=0;resizeParent=0;resizeLast=1;container=0;collapsible=0;rounded=1;arcSize=30;strokeColor=#36393d;fillColor=#cce5ff;swimlaneFillColor=#ffffc0;dropTarget=0;" parent="1" vertex="1">
          <mxGeometry x="636" y="388" width="160" height="60" as="geometry" />
        </mxCell>
        <mxCell id="djPDteplL4elMwXBVkAy-27" value="Enter new user name&amp;nbsp;" style="text;html=1;strokeColor=#36393d;fillColor=#cce5ff;align=center;verticalAlign=middle;spacingLeft=4;spacingRight=4;whiteSpace=wrap;overflow=hidden;rotatable=0;" parent="djPDteplL4elMwXBVkAy-26" vertex="1">
          <mxGeometry y="30" width="160" height="30" as="geometry" />
        </mxCell>
        <mxCell id="djPDteplL4elMwXBVkAy-32" value="Repeated Username?" style="rhombus;whiteSpace=wrap;html=1;fillColor=#ffff88;strokeColor=#36393d;" parent="1" vertex="1">
          <mxGeometry x="666" y="482.5" width="100" height="70" as="geometry" />
        </mxCell>
        <mxCell id="djPDteplL4elMwXBVkAy-34" value="No" style="edgeStyle=orthogonalEdgeStyle;html=1;align=left;verticalAlign=top;endArrow=open;endSize=8;strokeColor=#000000;exitX=0;exitY=0.5;exitDx=0;exitDy=0;" parent="1" source="djPDteplL4elMwXBVkAy-32" edge="1">
          <mxGeometry y="-5" relative="1" as="geometry">
            <mxPoint x="656" y="1062" as="targetPoint" />
            <mxPoint as="offset" />
          </mxGeometry>
        </mxCell>
        <mxCell id="djPDteplL4elMwXBVkAy-35" value="Error Message&amp;nbsp;" style="rounded=1;whiteSpace=wrap;html=1;arcSize=40;fillColor=#cce5ff;strokeColor=#36393d;" parent="1" vertex="1">
          <mxGeometry x="742" y="900" width="120" height="40" as="geometry" />
        </mxCell>
        <mxCell id="djPDteplL4elMwXBVkAy-36" value="" style="edgeStyle=orthogonalEdgeStyle;html=1;verticalAlign=bottom;endArrow=open;endSize=8;strokeColor=#000000;entryX=0.5;entryY=0;entryDx=0;entryDy=0;" parent="1" source="djPDteplL4elMwXBVkAy-35" target="djPDteplL4elMwXBVkAy-37" edge="1">
          <mxGeometry relative="1" as="geometry">
            <mxPoint x="580" y="770" as="targetPoint" />
            <Array as="points" />
          </mxGeometry>
        </mxCell>
        <mxCell id="djPDteplL4elMwXBVkAy-37" value="Clear Fields" style="rounded=1;whiteSpace=wrap;html=1;arcSize=40;fillColor=#cce5ff;strokeColor=#36393d;" parent="1" vertex="1">
          <mxGeometry x="742" y="995" width="120" height="40" as="geometry" />
        </mxCell>
        <mxCell id="djPDteplL4elMwXBVkAy-38" value="" style="edgeStyle=orthogonalEdgeStyle;html=1;verticalAlign=bottom;endArrow=open;endSize=8;strokeColor=#000000;exitX=0;exitY=0.5;exitDx=0;exitDy=0;rounded=0;curved=0;" parent="1" source="djPDteplL4elMwXBVkAy-37" target="djPDteplL4elMwXBVkAy-17" edge="1">
          <mxGeometry relative="1" as="geometry">
            <mxPoint x="680" y="390" as="targetPoint" />
            <Array as="points">
              <mxPoint x="742" y="1014" />
              <mxPoint x="550" y="1014" />
              <mxPoint x="550" y="400" />
              <mxPoint x="601" y="400" />
            </Array>
          </mxGeometry>
        </mxCell>
        <mxCell id="djPDteplL4elMwXBVkAy-41" value="Old password correct ?" style="rhombus;whiteSpace=wrap;html=1;fillColor=#ffff88;strokeColor=#36393d;" parent="1" vertex="1">
          <mxGeometry x="845" y="487.5" width="100" height="65" as="geometry" />
        </mxCell>
        <mxCell id="djPDteplL4elMwXBVkAy-43" value="yes" style="edgeStyle=orthogonalEdgeStyle;html=1;align=left;verticalAlign=top;endArrow=open;endSize=8;strokeColor=#000000;entryX=0.5;entryY=0;entryDx=0;entryDy=0;" parent="1" source="djPDteplL4elMwXBVkAy-44" edge="1" target="djPDteplL4elMwXBVkAy-49">
          <mxGeometry x="-1" relative="1" as="geometry">
            <mxPoint x="895" y="710" as="targetPoint" />
          </mxGeometry>
        </mxCell>
        <mxCell id="djPDteplL4elMwXBVkAy-46" value="" style="shape=line;html=1;strokeWidth=6;strokeColor=#000000;" parent="1" vertex="1">
          <mxGeometry x="672" y="852" width="260" height="10" as="geometry" />
        </mxCell>
        <mxCell id="djPDteplL4elMwXBVkAy-47" value="" style="edgeStyle=orthogonalEdgeStyle;html=1;verticalAlign=bottom;endArrow=open;endSize=8;strokeColor=#000000;exitX=0.499;exitY=0.618;exitDx=0;exitDy=0;exitPerimeter=0;entryX=0.5;entryY=0;entryDx=0;entryDy=0;" parent="1" source="djPDteplL4elMwXBVkAy-46" target="djPDteplL4elMwXBVkAy-35" edge="1">
          <mxGeometry relative="1" as="geometry">
            <mxPoint x="835" y="980" as="targetPoint" />
          </mxGeometry>
        </mxCell>
        <mxCell id="djPDteplL4elMwXBVkAy-49" value="Valid Password" style="rhombus;whiteSpace=wrap;html=1;fillColor=#ffff88;strokeColor=#36393d;" parent="1" vertex="1">
          <mxGeometry x="847.5" y="710" width="95" height="80" as="geometry" />
        </mxCell>
        <mxCell id="djPDteplL4elMwXBVkAy-53" value="Forget&lt;br&gt;&amp;nbsp;Password ?" style="rhombus;whiteSpace=wrap;html=1;fillColor=#ffff88;strokeColor=#36393d;" parent="1" vertex="1">
          <mxGeometry x="1066" y="490" width="100" height="60" as="geometry" />
        </mxCell>
        <mxCell id="djPDteplL4elMwXBVkAy-54" value="no" style="edgeStyle=orthogonalEdgeStyle;html=1;align=left;verticalAlign=bottom;endArrow=open;endSize=8;strokeColor=#000000;entryX=1;entryY=0.25;entryDx=0;entryDy=0;exitX=0.5;exitY=0;exitDx=0;exitDy=0;" parent="1" source="djPDteplL4elMwXBVkAy-53" target="djPDteplL4elMwXBVkAy-24" edge="1">
          <mxGeometry x="-0.5464" y="10" relative="1" as="geometry">
            <mxPoint x="1200" y="630" as="targetPoint" />
            <mxPoint as="offset" />
          </mxGeometry>
        </mxCell>
        <mxCell id="djPDteplL4elMwXBVkAy-55" value="yes" style="edgeStyle=orthogonalEdgeStyle;html=1;align=left;verticalAlign=top;endArrow=open;endSize=8;strokeColor=#000000;entryX=0.5;entryY=0;entryDx=0;entryDy=0;" parent="1" source="djPDteplL4elMwXBVkAy-53" target="djPDteplL4elMwXBVkAy-57" edge="1">
          <mxGeometry x="-1" relative="1" as="geometry">
            <mxPoint x="1040" y="700" as="targetPoint" />
          </mxGeometry>
        </mxCell>
        <mxCell id="djPDteplL4elMwXBVkAy-56" value="No" style="edgeStyle=orthogonalEdgeStyle;html=1;verticalAlign=bottom;endArrow=open;endSize=8;strokeColor=#000000;entryX=0;entryY=0.5;entryDx=0;entryDy=0;exitX=1;exitY=0.5;exitDx=0;exitDy=0;" parent="1" source="djPDteplL4elMwXBVkAy-41" target="djPDteplL4elMwXBVkAy-53" edge="1">
          <mxGeometry relative="1" as="geometry">
            <mxPoint x="905" y="612.5" as="targetPoint" />
            <mxPoint x="905" y="560" as="sourcePoint" />
            <Array as="points" />
          </mxGeometry>
        </mxCell>
        <mxCell id="djPDteplL4elMwXBVkAy-57" value="Send e-mail verification&amp;nbsp;" style="rounded=1;whiteSpace=wrap;html=1;arcSize=40;fillColor=#cce5ff;strokeColor=#36393d;" parent="1" vertex="1">
          <mxGeometry x="1056" y="593" width="120" height="40" as="geometry" />
        </mxCell>
        <mxCell id="djPDteplL4elMwXBVkAy-58" value="" style="edgeStyle=orthogonalEdgeStyle;html=1;verticalAlign=bottom;endArrow=open;endSize=8;strokeColor=#000000;entryX=0.5;entryY=0;entryDx=0;entryDy=0;" parent="1" source="djPDteplL4elMwXBVkAy-57" target="djPDteplL4elMwXBVkAy-63" edge="1">
          <mxGeometry relative="1" as="geometry">
            <mxPoint x="1050" y="800" as="targetPoint" />
          </mxGeometry>
        </mxCell>
        <mxCell id="djPDteplL4elMwXBVkAy-60" value="Yes" style="edgeStyle=orthogonalEdgeStyle;html=1;verticalAlign=bottom;endArrow=open;endSize=8;strokeColor=#000000;exitX=0.5;exitY=1;exitDx=0;exitDy=0;entryX=0.173;entryY=0.705;entryDx=0;entryDy=0;entryPerimeter=0;" parent="1" source="djPDteplL4elMwXBVkAy-32" edge="1" target="djPDteplL4elMwXBVkAy-46">
          <mxGeometry relative="1" as="geometry">
            <mxPoint x="718" y="950" as="targetPoint" />
            <Array as="points">
              <mxPoint x="716" y="810" />
              <mxPoint x="717" y="810" />
            </Array>
          </mxGeometry>
        </mxCell>
        <mxCell id="djPDteplL4elMwXBVkAy-62" value="No" style="edgeStyle=orthogonalEdgeStyle;html=1;verticalAlign=bottom;endArrow=open;endSize=8;strokeColor=#000000;exitX=0;exitY=0.5;exitDx=0;exitDy=0;rounded=0;curved=0;entryX=0.512;entryY=0.659;entryDx=0;entryDy=0;entryPerimeter=0;" parent="1" source="djPDteplL4elMwXBVkAy-49" edge="1" target="djPDteplL4elMwXBVkAy-46">
          <mxGeometry relative="1" as="geometry">
            <mxPoint x="805" y="950" as="targetPoint" />
            <Array as="points">
              <mxPoint x="805" y="750" />
            </Array>
          </mxGeometry>
        </mxCell>
        <mxCell id="djPDteplL4elMwXBVkAy-63" value="Mail Verified ?" style="rhombus;whiteSpace=wrap;html=1;fillColor=#ffff88;strokeColor=#36393d;" parent="1" vertex="1">
          <mxGeometry x="1066" y="663" width="100" height="70" as="geometry" />
        </mxCell>
        <mxCell id="djPDteplL4elMwXBVkAy-64" value="no" style="edgeStyle=orthogonalEdgeStyle;html=1;align=left;verticalAlign=bottom;endArrow=open;endSize=8;strokeColor=#000000;exitX=0.5;exitY=1;exitDx=0;exitDy=0;entryX=0.894;entryY=0.455;entryDx=0;entryDy=0;entryPerimeter=0;" parent="1" source="djPDteplL4elMwXBVkAy-63" target="djPDteplL4elMwXBVkAy-46" edge="1">
          <mxGeometry x="-0.2099" relative="1" as="geometry">
            <mxPoint x="1190" y="840" as="targetPoint" />
            <mxPoint x="1" as="offset" />
          </mxGeometry>
        </mxCell>
        <mxCell id="djPDteplL4elMwXBVkAy-65" value="yes" style="edgeStyle=orthogonalEdgeStyle;html=1;align=left;verticalAlign=top;endArrow=open;endSize=8;strokeColor=#000000;entryX=1;entryY=0.5;entryDx=0;entryDy=0;" parent="1" source="djPDteplL4elMwXBVkAy-63" target="djPDteplL4elMwXBVkAy-44" edge="1">
          <mxGeometry x="0.0172" y="13" relative="1" as="geometry">
            <mxPoint x="1050" y="920" as="targetPoint" />
            <mxPoint as="offset" />
          </mxGeometry>
        </mxCell>
        <mxCell id="djPDteplL4elMwXBVkAy-68" value="Yes" style="edgeStyle=orthogonalEdgeStyle;html=1;verticalAlign=bottom;endArrow=open;endSize=8;strokeColor=#000000;exitX=1;exitY=0.5;exitDx=0;exitDy=0;" parent="1" source="djPDteplL4elMwXBVkAy-49" edge="1" target="_2l3hIEK4Avxqhxf82kZ-1">
          <mxGeometry relative="1" as="geometry">
            <mxPoint x="960" y="1160" as="targetPoint" />
          </mxGeometry>
        </mxCell>
        <mxCell id="69n3fJ-1WLA8eGQb09Vc-5" value="" style="edgeStyle=orthogonalEdgeStyle;rounded=0;orthogonalLoop=1;jettySize=auto;html=1;" edge="1" parent="1" source="99rynNy-IvL8sy4_RmEI-1" target="99rynNy-IvL8sy4_RmEI-3">
          <mxGeometry relative="1" as="geometry" />
        </mxCell>
        <mxCell id="99rynNy-IvL8sy4_RmEI-1" value="&lt;b&gt;Edit Subscription Plan&lt;/b&gt;" style="rounded=1;whiteSpace=wrap;html=1;arcSize=40;fillColor=#cce5ff;strokeColor=#36393d;" parent="1" vertex="1">
          <mxGeometry x="1280" y="378" width="120" height="40" as="geometry" />
        </mxCell>
        <mxCell id="69n3fJ-1WLA8eGQb09Vc-12" value="" style="edgeStyle=orthogonalEdgeStyle;rounded=0;orthogonalLoop=1;jettySize=auto;html=1;" edge="1" parent="1" source="99rynNy-IvL8sy4_RmEI-3" target="99rynNy-IvL8sy4_RmEI-5">
          <mxGeometry relative="1" as="geometry" />
        </mxCell>
        <mxCell id="99rynNy-IvL8sy4_RmEI-3" value="&lt;b&gt;Cancel Old Plan&lt;/b&gt;" style="rounded=1;whiteSpace=wrap;html=1;arcSize=40;fillColor=#cce5ff;strokeColor=#36393d;" parent="1" vertex="1">
          <mxGeometry x="1280" y="453" width="120" height="40" as="geometry" />
        </mxCell>
        <mxCell id="99rynNy-IvL8sy4_RmEI-5" value="&lt;b&gt;Choose New Subscriptions Plan&lt;/b&gt;" style="rounded=1;whiteSpace=wrap;html=1;arcSize=40;fillColor=#cce5ff;strokeColor=#36393d;" parent="1" vertex="1">
          <mxGeometry x="1280" y="536" width="120" height="40" as="geometry" />
        </mxCell>
        <mxCell id="99rynNy-IvL8sy4_RmEI-6" value="" style="edgeStyle=orthogonalEdgeStyle;html=1;verticalAlign=bottom;endArrow=open;endSize=8;strokeColor=#000000;entryX=0.991;entryY=0.657;entryDx=0;entryDy=0;entryPerimeter=0;" parent="1" source="99rynNy-IvL8sy4_RmEI-5" edge="1" target="_2l3hIEK4Avxqhxf82kZ-1">
          <mxGeometry relative="1" as="geometry">
            <mxPoint x="1340" y="1160" as="targetPoint" />
          </mxGeometry>
        </mxCell>
        <mxCell id="69n3fJ-1WLA8eGQb09Vc-14" style="edgeStyle=orthogonalEdgeStyle;rounded=0;orthogonalLoop=1;jettySize=auto;html=1;entryX=0.5;entryY=0;entryDx=0;entryDy=0;" edge="1" parent="1" source="_2l3hIEK4Avxqhxf82kZ-1" target="_2l3hIEK4Avxqhxf82kZ-5">
          <mxGeometry relative="1" as="geometry" />
        </mxCell>
        <mxCell id="_2l3hIEK4Avxqhxf82kZ-1" value="" style="shape=line;html=1;strokeWidth=6;strokeColor=#000000;" parent="1" vertex="1">
          <mxGeometry x="657" y="1068" width="690" height="10" as="geometry" />
        </mxCell>
        <mxCell id="69n3fJ-1WLA8eGQb09Vc-15" style="edgeStyle=orthogonalEdgeStyle;rounded=0;orthogonalLoop=1;jettySize=auto;html=1;entryX=1;entryY=0.5;entryDx=0;entryDy=0;" edge="1" parent="1" source="_2l3hIEK4Avxqhxf82kZ-5" target="_2l3hIEK4Avxqhxf82kZ-24">
          <mxGeometry relative="1" as="geometry">
            <Array as="points">
              <mxPoint x="1082" y="1169" />
              <mxPoint x="1082" y="1404" />
            </Array>
          </mxGeometry>
        </mxCell>
        <mxCell id="69n3fJ-1WLA8eGQb09Vc-16" value="No" style="edgeLabel;html=1;align=center;verticalAlign=middle;resizable=0;points=[];" vertex="1" connectable="0" parent="69n3fJ-1WLA8eGQb09Vc-15">
          <mxGeometry x="-0.4894" y="1" relative="1" as="geometry">
            <mxPoint as="offset" />
          </mxGeometry>
        </mxCell>
        <mxCell id="_2l3hIEK4Avxqhxf82kZ-5" value="&lt;b&gt;Confirm Editing ?&lt;/b&gt;" style="rhombus;whiteSpace=wrap;html=1;fillColor=#ffff88;strokeColor=#36393d;" parent="1" vertex="1">
          <mxGeometry x="942" y="1119" width="120" height="100" as="geometry" />
        </mxCell>
        <mxCell id="_2l3hIEK4Avxqhxf82kZ-7" value="yes" style="edgeStyle=orthogonalEdgeStyle;html=1;align=left;verticalAlign=top;endArrow=open;endSize=8;strokeColor=#000000;entryX=0.5;entryY=0;entryDx=0;entryDy=0;" parent="1" source="_2l3hIEK4Avxqhxf82kZ-5" target="_2l3hIEK4Avxqhxf82kZ-8" edge="1">
          <mxGeometry x="-1" relative="1" as="geometry">
            <mxPoint x="970" y="1330" as="targetPoint" />
          </mxGeometry>
        </mxCell>
        <mxCell id="69n3fJ-1WLA8eGQb09Vc-13" value="" style="edgeStyle=orthogonalEdgeStyle;rounded=0;orthogonalLoop=1;jettySize=auto;html=1;" edge="1" parent="1" source="_2l3hIEK4Avxqhxf82kZ-8" target="_2l3hIEK4Avxqhxf82kZ-24">
          <mxGeometry relative="1" as="geometry" />
        </mxCell>
        <mxCell id="_2l3hIEK4Avxqhxf82kZ-8" value="&lt;b&gt;Save changes&amp;nbsp;&lt;/b&gt;" style="rounded=1;whiteSpace=wrap;html=1;arcSize=40;fillColor=#cce5ff;strokeColor=#36393d;" parent="1" vertex="1">
          <mxGeometry x="942" y="1293" width="120" height="40" as="geometry" />
        </mxCell>
        <mxCell id="69n3fJ-1WLA8eGQb09Vc-1" style="edgeStyle=orthogonalEdgeStyle;rounded=0;orthogonalLoop=1;jettySize=auto;html=1;entryX=0.5;entryY=0;entryDx=0;entryDy=0;" edge="1" parent="1" source="_2l3hIEK4Avxqhxf82kZ-17" target="_2l3hIEK4Avxqhxf82kZ-19">
          <mxGeometry relative="1" as="geometry" />
        </mxCell>
        <mxCell id="_2l3hIEK4Avxqhxf82kZ-17" value="" style="ellipse;html=1;shape=startState;fillColor=#000000;strokeColor=#ff0000;" parent="1" vertex="1">
          <mxGeometry x="1000" y="40" width="30" height="30" as="geometry" />
        </mxCell>
        <mxCell id="69n3fJ-1WLA8eGQb09Vc-2" style="edgeStyle=orthogonalEdgeStyle;rounded=0;orthogonalLoop=1;jettySize=auto;html=1;entryX=0.5;entryY=0;entryDx=0;entryDy=0;" edge="1" parent="1" source="_2l3hIEK4Avxqhxf82kZ-19" target="_2l3hIEK4Avxqhxf82kZ-21">
          <mxGeometry relative="1" as="geometry" />
        </mxCell>
        <mxCell id="_2l3hIEK4Avxqhxf82kZ-19" value="&lt;b&gt;&lt;font style=&quot;font-size: 14px&quot;&gt;Sign in successfully&amp;nbsp;&lt;/font&gt;&lt;/b&gt;" style="rounded=1;whiteSpace=wrap;html=1;arcSize=40;fillColor=#cce5ff;strokeColor=#36393d;" parent="1" vertex="1">
          <mxGeometry x="955" y="101" width="120" height="40" as="geometry" />
        </mxCell>
        <mxCell id="69n3fJ-1WLA8eGQb09Vc-3" value="" style="edgeStyle=orthogonalEdgeStyle;rounded=0;orthogonalLoop=1;jettySize=auto;html=1;" edge="1" parent="1" source="_2l3hIEK4Avxqhxf82kZ-21" target="_2l3hIEK4Avxqhxf82kZ-23">
          <mxGeometry relative="1" as="geometry" />
        </mxCell>
        <mxCell id="_2l3hIEK4Avxqhxf82kZ-21" value="&lt;b&gt;Show Profile Information&lt;/b&gt;" style="rounded=1;whiteSpace=wrap;html=1;arcSize=40;fillColor=#cce5ff;strokeColor=#36393d;" parent="1" vertex="1">
          <mxGeometry x="955" y="175" width="120" height="40" as="geometry" />
        </mxCell>
        <mxCell id="_2l3hIEK4Avxqhxf82kZ-23" value="&lt;b&gt;Edit profile&amp;nbsp;&lt;/b&gt;" style="rounded=1;whiteSpace=wrap;html=1;arcSize=40;fillColor=#cce5ff;strokeColor=#36393d;" parent="1" vertex="1">
          <mxGeometry x="955" y="240" width="120" height="40" as="geometry" />
        </mxCell>
        <mxCell id="_2l3hIEK4Avxqhxf82kZ-24" value="" style="ellipse;html=1;shape=endState;fillColor=#000000;strokeColor=#ff0000;" parent="1" vertex="1">
          <mxGeometry x="975" y="1379" width="55" height="50" as="geometry" />
        </mxCell>
        <mxCell id="69n3fJ-1WLA8eGQb09Vc-7" value="" style="edgeStyle=orthogonalEdgeStyle;html=1;align=left;verticalAlign=top;endArrow=open;endSize=8;strokeColor=#000000;" edge="1" parent="1" source="djPDteplL4elMwXBVkAy-41" target="djPDteplL4elMwXBVkAy-44">
          <mxGeometry x="-1" relative="1" as="geometry">
            <mxPoint x="895" y="710" as="targetPoint" />
            <mxPoint x="895" y="552" as="sourcePoint" />
          </mxGeometry>
        </mxCell>
        <mxCell id="djPDteplL4elMwXBVkAy-44" value="Enter New Password&amp;nbsp;" style="rounded=1;whiteSpace=wrap;html=1;arcSize=40;fillColor=#cce5ff;strokeColor=#36393d;" parent="1" vertex="1">
          <mxGeometry x="835" y="615" width="120" height="40" as="geometry" />
        </mxCell>
        <mxCell id="69n3fJ-1WLA8eGQb09Vc-18" style="edgeStyle=orthogonalEdgeStyle;rounded=0;orthogonalLoop=1;jettySize=auto;html=1;entryX=0.559;entryY=0.366;entryDx=0;entryDy=0;entryPerimeter=0;" edge="1" parent="1" source="_2l3hIEK4Avxqhxf82kZ-23" target="djPDteplL4elMwXBVkAy-17">
          <mxGeometry relative="1" as="geometry" />
        </mxCell>
        <mxCell id="69n3fJ-1WLA8eGQb09Vc-19" style="edgeStyle=orthogonalEdgeStyle;rounded=0;orthogonalLoop=1;jettySize=auto;html=1;entryX=0.362;entryY=0.022;entryDx=0;entryDy=0;entryPerimeter=0;" edge="1" parent="1" source="djPDteplL4elMwXBVkAy-17" target="djPDteplL4elMwXBVkAy-23">
          <mxGeometry relative="1" as="geometry" />
        </mxCell>
      </root>
    </mxGraphModel>
  </diagram>
</mxfile>
